<svg width="16" height="16" viewBox="0 0 16 16" fill="none" xmlns="http://www.w3.org/2000/svg">
<path fill-rule="evenodd" clip-rule="evenodd" d="M2 12.375C2 13.2725 2.72754 14 3.625 14L12.375 14C13.2725 14 14 13.2725 14 12.375L14 11.5C14 10.9477 14.4477 10.5 15 10.5C15.5523 10.5 16 10.9477 16 11.5L16 12.375C16 14.377 14.377 16 12.375 16L3.625 16C1.62297 16 -7.09422e-08 14.377 -1.58454e-07 12.375L-1.96701e-07 11.5C-2.20842e-07 10.9477 0.447715 10.5 1 10.5C1.55228 10.5 2 10.9477 2 11.5L2 12.375ZM3.79289 7.29289C4.18342 6.90237 4.81658 6.90237 5.20711 7.29289L7 9.08579L7 1C7 0.447715 7.44771 -3.2555e-07 8 -3.49691e-07C8.55228 -3.73832e-07 9 0.447714 9 1L9 9.08579L10.7929 7.29289C11.1834 6.90237 11.8166 6.90237 12.2071 7.29289C12.5976 7.68342 12.5976 8.31658 12.2071 8.70711L8.70711 12.2071C8.31658 12.5976 7.68342 12.5976 7.29289 12.2071L3.79289 8.70711C3.40237 8.31658 3.40237 7.68342 3.79289 7.29289Z" fill="white"/>
</svg>
