<svg width="24" height="25" viewBox="0 0 24 25" fill="none" xmlns="http://www.w3.org/2000/svg">
<g clip-path="url(#clip0_2_66)">
<path opacity="0.986" fill-rule="evenodd" clip-rule="evenodd" d="M23.9766 7.61077C23.9766 8.28263 23.9766 8.95453 23.9766 9.62639C23.8877 9.76969 23.7627 9.87122 23.6016 9.93108C23.0393 9.95452 22.4768 9.96234 21.9141 9.95452C21.9219 13.2983 21.9141 16.642 21.8906 19.9858C21.7357 20.319 21.4701 20.4596 21.0938 20.4076C20.7724 20.4454 20.5223 20.3361 20.3438 20.0795C20.3203 16.7046 20.3125 13.3296 20.3203 9.95452C19.8047 9.95452 19.2891 9.95452 18.7734 9.95452C18.7813 11.9233 18.7734 13.8921 18.75 15.8608C18.5849 16.1595 18.327 16.2845 17.9766 16.2358C17.6261 16.2845 17.3683 16.1595 17.2031 15.8608C17.1797 13.8921 17.1719 11.9233 17.1797 9.95452C13.7109 9.95452 10.2422 9.95452 6.77344 9.95452C6.78127 11.9233 6.77344 13.8921 6.75 15.8608C6.5827 16.1595 6.32489 16.2845 5.97656 16.2358C5.62608 16.2845 5.36827 16.1595 5.20312 15.8608C5.17969 13.8921 5.17186 11.9233 5.17969 9.95452C4.66406 9.95452 4.14844 9.95452 3.63281 9.95452C3.64063 13.3296 3.63281 16.7046 3.60938 20.0795C3.43077 20.3361 3.18077 20.4454 2.85938 20.4076C2.48303 20.4596 2.21741 20.319 2.0625 19.9858C2.03906 16.642 2.03125 13.2983 2.03906 9.95452C1.47635 9.96234 0.913847 9.95452 0.351562 9.93108C0.189311 9.86991 0.0643111 9.76838 -0.0234375 9.62639C-0.0234375 8.95453 -0.0234375 8.28263 -0.0234375 7.61077C1.23142 6.26995 2.5283 4.96528 3.86719 3.6967C6.56044 3.64239 9.25575 3.61895 11.9531 3.62639C14.6505 3.61895 17.3458 3.64239 20.0391 3.6967C21.3766 4.97953 22.6891 6.28425 23.9766 7.61077Z" fill="#6E7B70"/>
</g>
<defs>
<clipPath id="clip0_2_66">
<rect width="24" height="24" fill="white" transform="translate(0 0.040451)"/>
</clipPath>
</defs>
</svg>
