<svg width="12" height="13" viewBox="0 0 12 13" fill="none" xmlns="http://www.w3.org/2000/svg">
<path fill-rule="evenodd" clip-rule="evenodd" d="M5.50377 0.5C5.1962 0.5 4.91502 0.660502 4.77747 0.91459L4.18988 2H1.44362C0.99515 2 0.631592 2.33579 0.631592 2.75C0.631592 3.16421 0.99515 3.5 1.44362 3.5L1.44362 11C1.44362 11.8284 2.17074 12.5 3.06768 12.5H9.56392C10.4609 12.5 11.188 11.8284 11.188 11V3.5C11.6365 3.5 12 3.16421 12 2.75C12 2.33579 11.6365 2 11.188 2H8.44173L7.85413 0.91459C7.71658 0.660502 7.43541 0.5 7.12783 0.5H5.50377ZM3.87971 5C3.87971 4.58579 4.24327 4.25 4.69174 4.25C5.14021 4.25 5.50377 4.58579 5.50377 5V9.5C5.50377 9.91422 5.14021 10.25 4.69174 10.25C4.24327 10.25 3.87971 9.91422 3.87971 9.5V5ZM7.93986 4.25C7.49139 4.25 7.12783 4.58579 7.12783 5V9.5C7.12783 9.91422 7.49139 10.25 7.93986 10.25C8.38833 10.25 8.75189 9.91422 8.75189 9.5V5C8.75189 4.58579 8.38833 4.25 7.93986 4.25Z" fill="#6E7B70"/>
</svg>
