<svg xmlns="http://www.w3.org/2000/svg" width="24" height="24" viewBox="0 0 24 24" fill="none">
    <path d="M12 13.7143C13.0419 13.7143 13.8864 12.9468 13.8864 12C13.8864 11.0532 13.0419 10.2857 12 10.2857C10.9582 10.2857 10.1137 11.0532 10.1137 12C10.1137 12.9468 10.9582 13.7143 12 13.7143Z" fill="#18181B"/>
    <path fill-rule="evenodd" clip-rule="evenodd" d="M3 12C4.20185 8.5225 7.77678 6 12 6C16.2232 6 19.7981 8.52247 21 12C19.7982 15.4775 16.2232 18 12 18C7.77678 18 4.20187 15.4775 3 12ZM15.7728 12C15.7728 13.8935 14.0837 15.4286 12 15.4286C9.91643 15.4286 8.22733 13.8935 8.22733 12C8.22733 10.1065 9.91643 8.57143 12 8.57143C14.0837 8.57143 15.7728 10.1065 15.7728 12Z" fill="#18181B"/>
</svg>