<svg xmlns="http://www.w3.org/2000/svg" width="16" height="16" viewBox="0 0 16 16" fill="none">
    <path fill-rule="evenodd" clip-rule="evenodd" d="M0.941176 0C1.46097 0 1.88235 0.421379 1.88235 0.941176V2.84498C3.34933 1.10573 5.54493 0 8 0C12.0803 0 15.4459 3.05391 15.9382 7.00119C16.0025 7.51699 15.6365 7.98727 15.1207 8.05159C14.6049 8.11591 14.1346 7.74991 14.0703 7.23411C13.6941 4.2173 11.119 1.88235 8 1.88235C5.96275 1.88235 4.1567 2.87836 3.0444 4.41176H5.35294C5.87274 4.41176 6.29412 4.83314 6.29412 5.35294C6.29412 5.87274 5.87274 6.29412 5.35294 6.29412H0.941176C0.421379 6.29412 0 5.87274 0 5.35294V0.941176C0 0.421379 0.421379 0 0.941176 0ZM0.879328 7.94841C1.39513 7.88409 1.86541 8.25009 1.92973 8.76589C2.30592 11.7827 4.881 14.1176 8 14.1176C10.0373 14.1176 11.8433 13.1216 12.9556 11.5882H10.6471C10.1273 11.5882 9.70588 11.1669 9.70588 10.6471C9.70588 10.1273 10.1273 9.70588 10.6471 9.70588H15.0588C15.5786 9.70588 16 10.1273 16 10.6471V15.0588C16 15.5786 15.5786 16 15.0588 16C14.539 16 14.1176 15.5786 14.1176 15.0588V13.155C12.6507 14.8943 10.4551 16 8 16C3.91967 16 0.554064 12.9461 0.0618456 8.99881C-0.00247417 8.48301 0.363525 8.01273 0.879328 7.94841Z" fill="#77877a"/>
</svg>