<svg xmlns="http://www.w3.org/2000/svg" width="20" height="20" viewBox="0 0 20 20" fill="none">
    <path fill-rule="evenodd" clip-rule="evenodd" d="M8.69273 4.90212C6.5991 4.90212 4.90188 6.59934 4.90188 8.69297C4.90188 10.7866 6.5991 12.4838 8.69273 12.4838C10.7864 12.4838 12.4836 10.7866 12.4836 8.69297C12.4836 6.59934 10.7864 4.90212 8.69273 4.90212ZM3.33325 8.69297C3.33325 5.73302 5.73277 3.3335 8.69273 3.3335C11.6527 3.3335 14.0522 5.73302 14.0522 8.69297C14.0522 9.89004 13.6597 10.9954 12.9965 11.8875L16.4369 15.3279C16.7432 15.6342 16.7432 16.1308 16.4369 16.4371C16.1306 16.7434 15.634 16.7434 15.3277 16.4371L11.8873 12.9967C10.9952 13.66 9.8898 14.0524 8.69273 14.0524C5.73277 14.0524 3.33325 11.6529 3.33325 8.69297Z" fill="#92929B"/>
</svg>