<svg
        xmlns="http://www.w3.org/2000/svg"
        width="32"
        height="32"
        viewBox="0 0 32 32"
        fill="none"
>
    <path
            fill-rule="evenodd"
            clip-rule="evenodd"
            d="M15.9999 7.46683C11.2871 7.46683 7.46659 11.2873 7.46659 16.0002C7.46659 20.713 11.2871 24.5335 15.9999 24.5335C20.7127 24.5335 24.5333 20.713 24.5333 16.0002C24.5333 11.2873 20.7127 7.46683 15.9999 7.46683ZM5.33325 16.0002C5.33325 10.1091 10.1089 5.3335 15.9999 5.3335C21.891 5.3335 26.6666 10.1091 26.6666 16.0002C26.6666 21.8912 21.891 26.6668 15.9999 26.6668C10.1089 26.6668 5.33325 21.8912 5.33325 16.0002ZM15.9999 10.6668C16.589 10.6668 17.0666 11.1444 17.0666 11.7335V16.0002C17.0666 16.5893 16.589 17.0668 15.9999 17.0668C15.4108 17.0668 14.9333 16.5893 14.9333 16.0002V11.7335C14.9333 11.1444 15.4108 10.6668 15.9999 10.6668ZM14.9333 20.2668C14.9333 19.6777 15.4108 19.2002 15.9999 19.2002H16.0106C16.5997 19.2002 17.0773 19.6777 17.0773 20.2668C17.0773 20.8559 16.5997 21.3335 16.0106 21.3335H15.9999C15.4108 21.3335 14.9333 20.8559 14.9333 20.2668Z"
            fill="#C71B2C"
    />
</svg>