<svg xmlns="http://www.w3.org/2000/svg" width="24" height="24" viewBox="0 0 24 24" fill="none">
    <path fill-rule="evenodd" clip-rule="evenodd" d="M4.39077 4.39052C4.91147 3.86983 5.75569 3.86983 6.27639 4.39052L12.0002 10.1144L17.7241 4.39052C18.2448 3.86983 19.089 3.86983 19.6097 4.39052C20.1304 4.91122 20.1304 5.75544 19.6097 6.27614L13.8859 12L19.6097 17.7239C20.1304 18.2446 20.1304 19.0888 19.6097 19.6095C19.089 20.1302 18.2448 20.1302 17.7241 19.6095L12.0002 13.8856L6.27639 19.6095C5.75569 20.1302 4.91147 20.1302 4.39077 19.6095C3.87007 19.0888 3.87007 18.2446 4.39077 17.7239L10.1146 12L4.39077 6.27614C3.87007 5.75544 3.87007 4.91122 4.39077 4.39052Z" fill="#D8D8DC"/>
</svg>